<mxfile host="Electron" agent="Mozilla/5.0 (Windows NT 10.0; Win64; x64) AppleWebKit/537.36 (KHTML, like Gecko) draw.io/26.0.4 Chrome/128.0.6613.186 Electron/32.2.5 Safari/537.36" version="26.0.4">
  <diagram name="Page-1" id="glObEs81VMV0oeVZD5Xx">
    <mxGraphModel dx="1350" dy="504" grid="1" gridSize="10" guides="1" tooltips="1" connect="1" arrows="1" fold="1" page="1" pageScale="1" pageWidth="570" pageHeight="940" math="0" shadow="0">
      <root>
        <mxCell id="0" />
        <mxCell id="1" parent="0" />
        <mxCell id="MFERhtH1TB3WCQPNeuNb-1" value="z = 3.5&lt;div&gt;x&lt;sub&gt;1&lt;/sub&gt;=1.5&lt;/div&gt;&lt;div&gt;x&lt;sub&gt;2&lt;/sub&gt;=2.5&lt;/div&gt;" style="rounded=0;whiteSpace=wrap;html=1;fillColor=none;" vertex="1" parent="1">
          <mxGeometry x="260" y="30" width="70" height="50" as="geometry" />
        </mxCell>
        <mxCell id="MFERhtH1TB3WCQPNeuNb-2" value="z = 3.3&lt;div&gt;x&lt;sub&gt;1&lt;/sub&gt;=1&lt;/div&gt;&lt;div&gt;x&lt;sub&gt;2&lt;/sub&gt;=2.1&lt;/div&gt;" style="rounded=0;whiteSpace=wrap;html=1;fillColor=none;" vertex="1" parent="1">
          <mxGeometry x="150" y="100" width="70" height="50" as="geometry" />
        </mxCell>
        <mxCell id="MFERhtH1TB3WCQPNeuNb-3" value="z = 2&lt;div&gt;x&lt;sub&gt;1&lt;/sub&gt;=2&lt;/div&gt;&lt;div&gt;x&lt;sub&gt;2&lt;/sub&gt;=2&lt;/div&gt;" style="rounded=0;whiteSpace=wrap;html=1;fillColor=none;" vertex="1" parent="1">
          <mxGeometry x="380" y="100" width="70" height="50" as="geometry" />
        </mxCell>
        <mxCell id="MFERhtH1TB3WCQPNeuNb-4" value="No Solution" style="rounded=0;whiteSpace=wrap;html=1;fillColor=none;" vertex="1" parent="1">
          <mxGeometry x="240" y="170" width="70" height="50" as="geometry" />
        </mxCell>
        <mxCell id="MFERhtH1TB3WCQPNeuNb-5" value="z = 3.25&lt;div&gt;x&lt;sub&gt;1&lt;/sub&gt;=0.75&lt;/div&gt;&lt;div&gt;x&lt;sub&gt;2&lt;/sub&gt;=2&lt;/div&gt;" style="rounded=0;whiteSpace=wrap;html=1;fillColor=none;" vertex="1" parent="1">
          <mxGeometry x="60" y="180" width="70" height="50" as="geometry" />
        </mxCell>
        <mxCell id="MFERhtH1TB3WCQPNeuNb-6" value="z = 3&lt;div&gt;x&lt;sub&gt;1&lt;/sub&gt;=0&lt;/div&gt;&lt;div&gt;x&lt;sub&gt;2&lt;/sub&gt;=1.5&lt;/div&gt;" style="rounded=0;whiteSpace=wrap;html=1;fillColor=none;" vertex="1" parent="1">
          <mxGeometry x="-30" y="270" width="70" height="50" as="geometry" />
        </mxCell>
        <mxCell id="MFERhtH1TB3WCQPNeuNb-7" value="z = 3&lt;div&gt;x&lt;sub&gt;1&lt;/sub&gt;=1&lt;/div&gt;&lt;div&gt;x&lt;sub&gt;2&lt;/sub&gt;=2&lt;/div&gt;" style="rounded=0;whiteSpace=wrap;html=1;fillColor=none;" vertex="1" parent="1">
          <mxGeometry x="160" y="270" width="70" height="50" as="geometry" />
        </mxCell>
        <mxCell id="MFERhtH1TB3WCQPNeuNb-8" value="" style="endArrow=none;html=1;rounded=0;exitX=1;exitY=0;exitDx=0;exitDy=0;entryX=0;entryY=1;entryDx=0;entryDy=0;" edge="1" parent="1" source="MFERhtH1TB3WCQPNeuNb-2" target="MFERhtH1TB3WCQPNeuNb-1">
          <mxGeometry width="50" height="50" relative="1" as="geometry">
            <mxPoint x="260" y="190" as="sourcePoint" />
            <mxPoint x="310" y="140" as="targetPoint" />
          </mxGeometry>
        </mxCell>
        <mxCell id="MFERhtH1TB3WCQPNeuNb-9" value="" style="endArrow=none;html=1;rounded=0;exitX=0;exitY=0;exitDx=0;exitDy=0;entryX=1;entryY=1;entryDx=0;entryDy=0;" edge="1" parent="1" source="MFERhtH1TB3WCQPNeuNb-3" target="MFERhtH1TB3WCQPNeuNb-1">
          <mxGeometry width="50" height="50" relative="1" as="geometry">
            <mxPoint x="260" y="190" as="sourcePoint" />
            <mxPoint x="310" y="140" as="targetPoint" />
          </mxGeometry>
        </mxCell>
        <mxCell id="MFERhtH1TB3WCQPNeuNb-10" value="" style="endArrow=none;html=1;rounded=0;exitX=1;exitY=0;exitDx=0;exitDy=0;entryX=0;entryY=1;entryDx=0;entryDy=0;" edge="1" parent="1" source="MFERhtH1TB3WCQPNeuNb-5" target="MFERhtH1TB3WCQPNeuNb-2">
          <mxGeometry width="50" height="50" relative="1" as="geometry">
            <mxPoint x="260" y="190" as="sourcePoint" />
            <mxPoint x="310" y="140" as="targetPoint" />
          </mxGeometry>
        </mxCell>
        <mxCell id="MFERhtH1TB3WCQPNeuNb-11" value="" style="endArrow=none;html=1;rounded=0;exitX=0;exitY=0;exitDx=0;exitDy=0;entryX=1;entryY=1;entryDx=0;entryDy=0;" edge="1" parent="1" source="MFERhtH1TB3WCQPNeuNb-4" target="MFERhtH1TB3WCQPNeuNb-2">
          <mxGeometry width="50" height="50" relative="1" as="geometry">
            <mxPoint x="260" y="190" as="sourcePoint" />
            <mxPoint x="310" y="140" as="targetPoint" />
          </mxGeometry>
        </mxCell>
        <mxCell id="MFERhtH1TB3WCQPNeuNb-12" value="" style="endArrow=none;html=1;rounded=0;entryX=0;entryY=1;entryDx=0;entryDy=0;exitX=1;exitY=0;exitDx=0;exitDy=0;" edge="1" parent="1" source="MFERhtH1TB3WCQPNeuNb-6" target="MFERhtH1TB3WCQPNeuNb-5">
          <mxGeometry width="50" height="50" relative="1" as="geometry">
            <mxPoint x="260" y="190" as="sourcePoint" />
            <mxPoint x="310" y="140" as="targetPoint" />
          </mxGeometry>
        </mxCell>
        <mxCell id="MFERhtH1TB3WCQPNeuNb-13" value="" style="endArrow=none;html=1;rounded=0;exitX=0;exitY=0;exitDx=0;exitDy=0;entryX=1;entryY=1;entryDx=0;entryDy=0;" edge="1" parent="1" source="MFERhtH1TB3WCQPNeuNb-7" target="MFERhtH1TB3WCQPNeuNb-5">
          <mxGeometry width="50" height="50" relative="1" as="geometry">
            <mxPoint x="260" y="190" as="sourcePoint" />
            <mxPoint x="310" y="140" as="targetPoint" />
          </mxGeometry>
        </mxCell>
        <mxCell id="MFERhtH1TB3WCQPNeuNb-14" value="&lt;div style=&quot;text-align: center;&quot;&gt;&lt;font style=&quot;font-size: 11px;&quot;&gt;&lt;span style=&quot;text-align: left; background-color: rgb(251, 251, 251);&quot;&gt;x&lt;sub style=&quot;&quot;&gt;1&lt;/sub&gt;&amp;nbsp;&lt;/span&gt;&lt;span style=&quot;background-color: rgb(255, 255, 255); color: rgb(31, 31, 31); font-family: &amp;quot;Google Sans&amp;quot;, Arial, sans-serif; text-align: left;&quot;&gt;≤ 1&lt;/span&gt;&lt;/font&gt;&lt;/div&gt;" style="text;html=1;align=center;verticalAlign=middle;whiteSpace=wrap;rounded=0;" vertex="1" parent="1">
          <mxGeometry x="190" y="70" width="40" height="20" as="geometry" />
        </mxCell>
        <mxCell id="MFERhtH1TB3WCQPNeuNb-15" value="&lt;div style=&quot;text-align: center;&quot;&gt;&lt;font style=&quot;font-size: 11px;&quot;&gt;&lt;span style=&quot;text-align: left; background-color: rgb(251, 251, 251);&quot;&gt;x&lt;sub style=&quot;&quot;&gt;2&lt;/sub&gt;&amp;nbsp;&lt;/span&gt;&lt;span style=&quot;background-color: rgb(255, 255, 255); color: rgb(31, 31, 31); font-family: &amp;quot;Google Sans&amp;quot;, Arial, sans-serif; text-align: left;&quot;&gt;≤ 2&lt;/span&gt;&lt;/font&gt;&lt;/div&gt;" style="text;html=1;align=center;verticalAlign=middle;whiteSpace=wrap;rounded=0;" vertex="1" parent="1">
          <mxGeometry x="90" y="150" width="40" height="20" as="geometry" />
        </mxCell>
        <mxCell id="MFERhtH1TB3WCQPNeuNb-16" value="&lt;div style=&quot;text-align: center;&quot;&gt;&lt;font style=&quot;font-size: 11px;&quot;&gt;&lt;span style=&quot;text-align: left; background-color: rgb(251, 251, 251);&quot;&gt;x&lt;sub style=&quot;&quot;&gt;1&lt;/sub&gt;&amp;nbsp;&lt;/span&gt;&lt;span style=&quot;background-color: rgb(255, 255, 255); color: rgb(31, 31, 31); font-family: &amp;quot;Google Sans&amp;quot;, Arial, sans-serif; text-align: left;&quot;&gt;≤ 0&lt;/span&gt;&lt;/font&gt;&lt;/div&gt;" style="text;html=1;align=center;verticalAlign=middle;whiteSpace=wrap;rounded=0;" vertex="1" parent="1">
          <mxGeometry y="240" width="40" height="20" as="geometry" />
        </mxCell>
        <mxCell id="MFERhtH1TB3WCQPNeuNb-17" value="&lt;span style=&quot;color: rgb(31, 31, 31); font-family: &amp;quot;Google Sans&amp;quot;, Arial, sans-serif; text-align: left; background-color: rgb(255, 255, 255);&quot;&gt;&lt;font style=&quot;font-size: 11px;&quot;&gt;x&lt;sub&gt;1&amp;nbsp;&lt;/sub&gt;≥ 2&lt;/font&gt;&lt;/span&gt;" style="text;html=1;align=center;verticalAlign=middle;whiteSpace=wrap;rounded=0;" vertex="1" parent="1">
          <mxGeometry x="360" y="70" width="50" height="20" as="geometry" />
        </mxCell>
        <mxCell id="MFERhtH1TB3WCQPNeuNb-18" value="&lt;span style=&quot;color: rgb(31, 31, 31); font-family: &amp;quot;Google Sans&amp;quot;, Arial, sans-serif; text-align: left; background-color: rgb(255, 255, 255);&quot;&gt;&lt;font style=&quot;font-size: 11px;&quot;&gt;x&lt;sub&gt;2&amp;nbsp;&lt;/sub&gt;≥ 3&lt;/font&gt;&lt;/span&gt;" style="text;html=1;align=center;verticalAlign=middle;whiteSpace=wrap;rounded=0;" vertex="1" parent="1">
          <mxGeometry x="240" y="148" width="50" height="20" as="geometry" />
        </mxCell>
        <mxCell id="MFERhtH1TB3WCQPNeuNb-19" value="&lt;span style=&quot;color: rgb(31, 31, 31); font-family: &amp;quot;Google Sans&amp;quot;, Arial, sans-serif; text-align: left; background-color: rgb(255, 255, 255);&quot;&gt;&lt;font style=&quot;font-size: 11px;&quot;&gt;x&lt;sub&gt;1&amp;nbsp;&lt;/sub&gt;≥ 1&lt;/font&gt;&lt;/span&gt;" style="text;html=1;align=center;verticalAlign=middle;whiteSpace=wrap;rounded=0;" vertex="1" parent="1">
          <mxGeometry x="160" y="240" width="50" height="20" as="geometry" />
        </mxCell>
      </root>
    </mxGraphModel>
  </diagram>
</mxfile>
